<svg width="78" height="32" viewBox="0 0 78 32" fill="none" xmlns="http://www.w3.org/2000/svg">
  <path d="M0 2C0 0.895431 0.89543 0 2 0H20.1716C20.702 0 21.2107 0.210713 21.5858 0.585786L28.2929 7.29289C28.9229 7.92286 30 7.47669 30 6.58579V2C30 0.89543 30.8954 0 32 0H39.1716C39.702 0 40.2107 0.210714 40.5858 0.585786L51.1279 11.1279C51.6836 11.6836 52.6473 11.4119 52.909 10.6708C55.1042 4.4543 61.0319 0 68 0H76C77.1046 0 78 0.89543 78 2V6.17158C78 6.70201 77.7893 7.21072 77.4142 7.58579L67.5858 17.4142C67.2107 17.7893 66.702 18 66.1716 18L60.4142 18C59.5233 18 59.0771 19.0771 59.7071 19.7071L67.4142 27.4142C67.7893 27.7893 68 28.298 68 28.8284V30C68 31.1046 67.1046 32 66 32H49.8284C49.298 32 48.7893 31.7893 48.4142 31.4142L33.7071 16.7071C33.0771 16.0771 32 16.5233 32 17.4142V30C32 31.1046 31.1046 32 30 32H18C16.8954 32 16 31.1046 16 30V18C16 16.8954 15.1046 16 14 16H2C0.895431 16 0 15.1046 0 14V2Z" fill="url(#paint0_linear)"/>
  <defs>
    <linearGradient id="paint0_linear" x1="77.3557" y1="8.37819" x2="7.75041" y2="42.3945" gradientUnits="userSpaceOnUse">
      <stop offset="0.15" stop-color="#8AD2EE"/>
      <stop offset="0.85" stop-color="#686AD2"/>
    </linearGradient>
  </defs>
</svg>
